<svg width="700" height="255" viewBox="0 0 700 255" fill="none" xmlns="http://www.w3.org/2000/svg">
<mask id="mask0_1_3" style="mask-type:luminance" maskUnits="userSpaceOnUse" x="0" y="0" width="700" height="255">
<path d="M700 0H0V254.1H700V0Z" fill="white"/>
</mask>
<g mask="url(#mask0_1_3)">
<mask id="mask1_1_3" style="mask-type:luminance" maskUnits="userSpaceOnUse" x="1" y="-1" width="698" height="256">
<path d="M698.964 -0.337158H1.03601V254.437H698.964V-0.337158Z" fill="white"/>
</mask>
<g mask="url(#mask1_1_3)">
<mask id="mask2_1_3" style="mask-type:luminance" maskUnits="userSpaceOnUse" x="1" y="-1" width="698" height="256">
<path d="M698.964 -0.337158H1.03601V254.437H698.964V-0.337158Z" fill="white"/>
</mask>
<g mask="url(#mask2_1_3)">
<mask id="mask3_1_3" style="mask-type:luminance" maskUnits="userSpaceOnUse" x="291" y="-1" width="408" height="256">
<path d="M698.964 -0.337158H291.094V254.437H698.964V-0.337158Z" fill="white"/>
</mask>
<g mask="url(#mask3_1_3)">
<mask id="mask4_1_3" style="mask-type:luminance" maskUnits="userSpaceOnUse" x="291" y="-1" width="408" height="256">
<path d="M698.964 -0.337158H291.094V254.437H698.964V-0.337158Z" fill="white"/>
</mask>
<g mask="url(#mask4_1_3)">
<mask id="mask5_1_3" style="mask-type:luminance" maskUnits="userSpaceOnUse" x="291" y="-1" width="408" height="162">
<path d="M698.964 -0.337158H291.094V160.605H698.964V-0.337158Z" fill="white"/>
</mask>
<g mask="url(#mask5_1_3)">
<mask id="mask6_1_3" style="mask-type:luminance" maskUnits="userSpaceOnUse" x="291" y="-1" width="408" height="162">
<path d="M698.964 -0.337158H291.094V160.605H698.964V-0.337158Z" fill="white"/>
</mask>
<g mask="url(#mask6_1_3)">
<path d="M304.39 19.0658V52.5613H346.464V63.7946H304.39V119.961C304.39 125.952 304.908 130.813 305.942 134.544C306.95 138.302 308.407 141.202 310.313 143.244C312.219 145.287 314.534 146.648 317.257 147.329C319.981 148.01 322.976 148.35 326.244 148.35C331.827 148.35 336.32 147.697 339.724 146.39C343.128 145.11 345.783 143.925 347.689 142.836L350.957 153.865C349.051 155.09 345.715 156.479 340.949 158.032C336.184 159.611 331.01 160.401 325.427 160.401C318.891 160.401 313.404 159.543 308.965 157.827C304.554 156.139 301.027 153.552 298.386 150.066C295.717 146.608 293.838 142.291 292.748 137.117C291.659 131.943 291.115 125.816 291.115 118.736V21.5167L304.39 19.0658ZM461.043 105.46C461.043 113.766 459.845 121.323 457.449 128.131C455.079 134.939 451.744 140.725 447.441 145.491C443.165 150.257 438.1 153.96 432.245 156.602C426.39 159.271 419.923 160.605 412.842 160.605C405.762 160.605 399.294 159.271 393.439 156.602C387.585 153.96 382.506 150.257 378.203 145.491C373.928 140.725 370.592 134.939 368.195 128.131C365.826 121.323 364.641 113.766 364.641 105.46C364.641 97.154 365.826 89.5971 368.195 82.789C370.592 75.981 373.928 70.1533 378.203 65.306C382.506 60.4859 387.585 56.7415 393.439 54.0727C399.294 51.4312 405.762 50.1104 412.842 50.1104C419.923 50.1104 426.39 51.4312 432.245 54.0727C438.1 56.7415 443.165 60.4859 447.441 65.306C451.744 70.1533 455.079 75.981 457.449 82.789C459.845 89.5971 461.043 97.154 461.043 105.46ZM446.951 105.46C446.951 92.2522 443.887 81.727 437.76 73.8841C431.633 66.0685 423.327 62.1607 412.842 62.1607C402.358 62.1607 394.052 66.0685 387.925 73.8841C381.798 81.727 378.734 92.2522 378.734 105.46C378.734 118.667 381.798 129.152 387.925 136.913C394.052 144.674 402.358 148.555 412.842 148.555C423.327 148.555 431.633 144.674 437.76 136.913C443.887 129.152 446.951 118.667 446.951 105.46ZM573.785 -0.337158V154.886C569.836 156.248 564.798 157.541 558.671 158.767C552.543 159.992 544.782 160.605 535.387 160.605C527.626 160.605 520.573 159.339 514.228 156.806C507.91 154.301 502.463 150.665 497.888 145.9C493.341 141.134 489.8 135.347 487.268 128.539C484.763 121.731 483.51 114.038 483.51 105.46C483.51 97.4263 484.558 90.0464 486.655 83.3201C488.779 76.5665 491.884 70.7388 495.969 65.837C500.053 60.9352 505.05 57.1227 510.96 54.3995C516.896 51.6763 523.677 50.3147 531.302 50.3147C538.247 50.3147 544.265 51.295 549.357 53.2557C554.477 55.2437 558.194 57.1227 560.509 58.8928V2.11373L573.785 -0.337158ZM560.509 145.695V71.76C559.283 70.8069 557.745 69.7857 555.893 68.6964C554.068 67.6071 551.931 66.5859 549.48 65.6328C547.029 64.6796 544.374 63.8899 541.514 63.2636C538.655 62.6645 535.659 62.3649 532.528 62.3649C525.992 62.3649 520.505 63.5223 516.066 65.837C511.654 68.1517 508.087 71.2426 505.364 75.1096C502.64 79.0038 500.666 83.5652 499.441 88.7937C498.215 94.0495 497.603 99.6049 497.603 105.46C497.603 119.348 501.075 129.996 508.019 137.403C514.963 144.838 524.154 148.555 535.591 148.555C542.127 148.555 547.397 148.242 551.4 147.615C555.43 147.016 558.466 146.376 560.509 145.695ZM698.944 105.46C698.944 113.766 697.759 121.323 695.39 128.131C692.993 134.939 689.657 140.725 685.382 145.491C681.079 150.257 676 153.96 670.146 156.602C664.291 159.271 657.823 160.605 650.743 160.605C643.662 160.605 637.195 159.271 631.34 156.602C625.485 153.96 620.42 150.257 616.144 145.491C611.841 140.725 608.506 134.939 606.136 128.131C603.74 121.323 602.542 113.766 602.542 105.46C602.542 97.154 603.74 89.5971 606.136 82.789C608.506 75.981 611.841 70.1533 616.144 65.306C620.42 60.4859 625.485 56.7415 631.34 54.0727C637.195 51.4312 643.662 50.1104 650.743 50.1104C657.823 50.1104 664.291 51.4312 670.146 54.0727C676 56.7415 681.079 60.4859 685.382 65.306C689.657 70.1533 692.993 75.981 695.39 82.789C697.759 89.5971 698.944 97.154 698.944 105.46ZM684.851 105.46C684.851 92.2522 681.787 81.727 675.66 73.8841C669.533 66.0685 661.227 62.1607 650.743 62.1607C640.258 62.1607 631.952 66.0685 625.825 73.8841C619.698 81.727 616.634 92.2522 616.634 105.46C616.634 118.667 619.698 129.152 625.825 136.913C631.952 144.674 640.258 148.555 650.743 148.555C661.227 148.555 669.533 144.674 675.66 136.913C681.787 129.152 684.851 118.667 684.851 105.46Z" fill="#610404"/>
</g>
</g>
<mask id="mask7_1_3" style="mask-type:luminance" maskUnits="userSpaceOnUse" x="291" y="198" width="408" height="57">
<path d="M698.964 198.6H291.094V254.438H698.964V198.6Z" fill="white"/>
</mask>
<g mask="url(#mask7_1_3)">
<mask id="mask8_1_3" style="mask-type:luminance" maskUnits="userSpaceOnUse" x="291" y="198" width="408" height="57">
<path d="M698.964 198.6H291.094V254.438H698.964V198.6Z" fill="white"/>
</mask>
<g mask="url(#mask8_1_3)">
<path d="M294.527 254.437C293.647 254.437 292.86 254.282 292.166 253.971C291.462 253.66 291.11 252.962 291.11 251.874C291.11 251.771 291.203 251.191 291.389 250.135C291.565 249.068 291.757 247.784 291.964 246.283H292.663C293.129 246.438 293.584 246.583 294.03 246.718C294.465 246.842 294.915 246.904 295.381 246.904C296.52 246.904 297.416 246.671 298.068 246.205C298.71 245.739 299.176 244.807 299.466 243.409C299.745 242.011 299.885 239.915 299.885 237.119V203.337L293.983 200.774V199.532H320.077V200.774L314.252 203.337V226.557C314.252 229.094 313.89 231.486 313.165 233.733C312.44 235.99 311.56 238.051 310.525 239.915C309.489 241.779 308.443 243.409 307.387 244.807C306.321 246.205 305.477 247.292 304.855 248.069C303.509 249.726 301.904 251.201 300.041 252.496C298.177 253.79 296.339 254.437 294.527 254.437ZM352.383 243.798C348.241 243.798 344.524 243.176 341.231 241.934C337.949 240.691 335.376 238.579 333.512 235.597C331.648 232.625 330.716 228.576 330.716 223.451V203.415L324.736 200.774V199.532H351.063V200.774L345.083 203.415V223.994C345.083 227.567 345.601 230.388 346.637 232.459C347.672 234.53 349.096 235.99 350.908 236.839C352.72 237.699 354.739 238.129 356.965 238.129C358.984 238.129 360.833 237.74 362.51 236.964C364.198 236.187 365.544 234.929 366.549 233.189C367.563 231.46 368.071 229.172 368.071 226.324V203.259L362.091 200.774V199.532H379.176V200.774L373.196 203.337V224.771C373.196 231.243 371.462 236.032 367.993 239.138C364.524 242.244 359.321 243.798 352.383 243.798ZM400.144 243.798C397.131 243.798 394.413 243.461 391.99 242.788C389.557 242.115 387.304 241.261 385.233 240.225L384.535 228.809H385.777L392.44 238.129C394.563 239.216 396.872 239.759 399.368 239.759C401.646 239.759 403.468 239.345 404.835 238.517C406.212 237.688 406.901 236.472 406.901 234.867C406.901 233.676 406.59 232.692 405.969 231.916C405.347 231.139 404.219 230.337 402.583 229.508C400.957 228.68 398.638 227.567 395.624 226.169C392.466 224.719 390.064 222.918 388.418 220.764C386.761 218.62 385.932 216.073 385.932 213.122C385.932 210.482 386.735 208.059 388.34 205.853C389.945 203.658 392.078 201.913 394.739 200.619C397.411 199.324 400.325 198.677 403.484 198.677C406.02 198.677 408.402 198.946 410.628 199.485C412.855 200.034 414.817 200.826 416.515 201.861L417.229 212.656H415.987L408.749 203.492C407.455 202.974 405.881 202.716 404.027 202.716C402.319 202.716 400.895 203.166 399.756 204.067C398.617 204.978 398.047 206.236 398.047 207.841C398.047 208.825 398.317 209.689 398.855 210.435C399.404 211.191 400.325 211.957 401.62 212.734C402.914 213.51 404.674 214.442 406.901 215.529C410.887 217.497 413.833 219.542 415.738 221.665C417.664 223.787 418.627 226.48 418.627 229.741C418.627 232.641 417.809 235.136 416.173 237.228C414.548 239.33 412.332 240.95 409.526 242.089C406.74 243.228 403.613 243.798 400.144 243.798ZM390.965 237.197L390.188 236.498C390.447 236.757 390.706 236.989 390.965 237.197ZM461.48 243.021H432.513V241.779L439.813 239.216V203.57H431.736L425.601 215.374H424.359V199.532H469.634V215.374H468.469L462.257 203.57H454.18V239.216L461.48 241.779V243.021ZM519.647 243.021H493.709V241.779L499.611 239.216V203.337L493.709 200.774V199.532H520.113C525.549 199.532 530.168 200.396 533.968 202.125C537.778 203.865 540.693 206.221 542.712 209.192C544.731 212.175 545.741 215.529 545.741 219.257C545.741 223.813 544.612 227.888 542.355 231.481C540.108 235.084 537.028 237.906 533.113 239.946C529.21 241.996 524.721 243.021 519.647 243.021ZM514.755 203.57H513.978V238.983H515.764C520.683 238.983 524.436 237.43 527.025 234.323C529.614 231.217 530.908 226.868 530.908 221.276C530.908 215.685 529.572 211.336 526.901 208.229C524.24 205.123 520.191 203.57 514.755 203.57ZM575.019 243.798C570.307 243.798 566.124 242.814 562.469 240.847C558.824 238.879 555.966 236.187 553.895 232.77C551.824 229.353 550.789 225.496 550.789 221.199C550.789 216.901 551.824 213.044 553.895 209.627C555.966 206.21 558.824 203.518 562.469 201.551C566.124 199.583 570.307 198.6 575.019 198.6C579.73 198.6 583.908 199.583 587.553 201.551C591.208 203.518 594.071 206.21 596.142 209.627C598.213 213.044 599.249 216.901 599.249 221.199C599.249 225.496 598.213 229.353 596.142 232.77C594.071 236.187 591.208 238.879 587.553 240.847C583.908 242.814 579.73 243.798 575.019 243.798ZM575.951 239.682C577.659 239.682 579.135 238.957 580.377 237.507C581.62 236.058 582.578 234.09 583.251 231.605C583.924 229.12 584.26 226.298 584.26 223.14C584.26 219.205 583.831 215.695 582.971 212.609C582.122 209.534 580.947 207.101 579.445 205.309C577.944 203.528 576.235 202.638 574.32 202.638C572.663 202.638 571.188 203.363 569.893 204.812C568.599 206.262 567.6 208.229 566.896 210.715C566.202 213.2 565.855 216.021 565.855 219.179C565.855 223.062 566.295 226.557 567.175 229.664C568.055 232.77 569.256 235.214 570.779 236.995C572.311 238.786 574.035 239.682 575.951 239.682ZM649.013 243.021H623.696V241.779L628.899 239.216V203.337L623.696 200.774V199.532H649.013V200.774L643.266 203.337V239.216L649.013 241.779V243.021ZM690.794 243.021H661.827V241.779L669.127 239.216V203.57H661.05L654.915 215.374H653.673V199.532H698.948V215.374H697.784L691.571 203.57H683.494V239.216L690.794 241.779V243.021Z" fill="#A61B1B"/>
</g>
</g>
</g>
</g>
<mask id="mask9_1_3" style="mask-type:luminance" maskUnits="userSpaceOnUse" x="1" y="1" width="253" height="253">
<path d="M253.1 1.01807H1.03598V253.082H253.1V1.01807Z" fill="white"/>
</mask>
<g mask="url(#mask9_1_3)">
<mask id="mask10_1_3" style="mask-type:luminance" maskUnits="userSpaceOnUse" x="1" y="1" width="253" height="253">
<path d="M253.1 1.01807H1.03598V253.082H253.1V1.01807Z" fill="white"/>
</mask>
<g mask="url(#mask10_1_3)">
<path d="M76.6546 253.081C34.8911 253.081 1.03598 219.225 1.03598 177.463V76.6367C1.03598 34.8732 34.8921 1.01807 76.6546 1.01807H177.481C219.244 1.01807 253.099 34.8742 253.099 76.6367V177.463C253.099 219.226 219.243 253.081 177.481 253.081H76.6546Z" fill="#610404"/>
<mask id="mask11_1_3" style="mask-type:luminance" maskUnits="userSpaceOnUse" x="54" y="80" width="152" height="94">
<path d="M205.427 80H54V173.06H205.427V80Z" fill="white"/>
</mask>
<g mask="url(#mask11_1_3)">
<mask id="mask12_1_3" style="mask-type:luminance" maskUnits="userSpaceOnUse" x="-63" y="-43" width="373" height="277">
<path d="M309.807 -42.1632H-62.2698V233.018H309.807V-42.1632Z" fill="white"/>
</mask>
<g mask="url(#mask12_1_3)">
<path d="M150.054 83.5153L200.986 171.725L203.056 168.128H101.192L103.26 171.725L154.176 83.5153C154.469 82.9708 154.538 82.3332 154.37 81.7383C154.201 81.1434 153.808 80.6376 153.275 80.3256C152.74 80.0155 152.106 79.9225 151.506 80.0698C150.905 80.2151 150.385 80.5891 150.054 81.1124L99.1377 169.463C98.9303 169.827 98.8199 170.24 98.8199 170.661C98.8218 171.079 98.9323 171.492 99.1396 171.856C99.3489 172.221 99.6512 172.523 100.014 172.734C100.376 172.945 100.787 173.058 101.207 173.062H203.071C203.49 173.052 203.897 172.936 204.255 172.723C204.614 172.509 204.91 172.205 205.116 171.843C205.321 171.48 205.428 171.07 205.428 170.653C205.426 170.236 205.317 169.825 205.11 169.463L154.176 81.2558C153.825 80.8178 153.331 80.5194 152.781 80.4108C152.23 80.3004 151.661 80.3895 151.168 80.6589C150.676 80.9282 150.296 81.3623 150.093 81.8836C149.889 82.4069 149.876 82.9844 150.054 83.5153Z" fill="white"/>
<path d="M105.25 83.5153L156.182 171.725L158.251 168.128H56.3865L58.4558 171.725L109.372 83.5153C109.664 82.9708 109.732 82.3332 109.566 81.7383C109.397 81.1434 109.004 80.6376 108.471 80.3256C107.936 80.0155 107.302 79.9225 106.701 80.0698C106.101 80.2151 105.581 80.5891 105.25 81.1124L54.3174 169.463C54.1089 169.827 53.9996 170.24 54 170.661C54.0004 171.079 54.1108 171.492 54.3201 171.856C54.5294 172.221 54.8302 172.523 55.1927 172.734C55.5553 172.945 55.9669 173.058 56.3865 173.062H158.251C158.668 173.052 159.075 172.936 159.433 172.723C159.792 172.509 160.088 172.205 160.294 171.843C160.499 171.48 160.608 171.07 160.606 170.653C160.606 170.236 160.495 169.825 160.288 169.463L109.356 81.2558C109.002 80.8294 108.509 80.5407 107.965 80.438C107.42 80.3353 106.856 80.4263 106.372 80.6918C105.885 80.9593 105.508 81.3875 105.304 81.903C105.099 82.4185 105.079 82.9882 105.25 83.5153Z" fill="white"/>
</g>
</g>
</g>
</g>
</g>
</g>
</g>
</svg>
